<svg width="200" height="86" viewBox="0 0 200 86" fill="none" xmlns="http://www.w3.org/2000/svg">
<path d="M25.9178 85.7144C22.8223 85.7144 19.8675 85.4026 17.0534 84.779L18.4042 72.194C20.5991 72.5341 22.6253 72.7042 24.4826 72.7042C27.9721 72.7042 30.6173 71.6554 32.4183 69.5579C34.2193 67.5171 35.2887 64.0591 35.6264 59.1838C32.3058 63.889 27.2404 66.2416 20.4303 66.2416C16.7157 66.2416 13.2825 65.2779 10.1307 63.3504C7.03523 61.423 4.55883 58.8153 2.70153 55.5273C0.900509 52.2393 0 48.6395 0 44.728C0 40.7597 0.900509 37.1316 2.70153 33.8436C4.50254 30.4989 6.9508 27.8629 10.0463 25.9354C13.1981 24.008 16.6313 23.0443 20.3459 23.0443C23.7791 23.0443 26.762 23.9513 29.2947 25.7653C31.8836 27.5227 33.5721 29.9037 34.36 32.9082V23.0443H52.1732V55.4423C52.1732 65.3629 49.922 72.8743 45.4194 77.9763C40.9731 83.135 34.4726 85.7144 25.9178 85.7144ZM25.9178 53.4865C28.169 53.4865 30.1108 52.6928 31.7429 51.1055C33.3751 49.4615 34.2475 47.5341 34.36 45.3232V44.6429C34.2475 42.4887 33.347 40.5896 31.6585 38.9456C30.0263 37.3016 28.1128 36.4796 25.9178 36.4796C23.6102 36.4796 21.6404 37.33 20.0082 39.0307C18.376 40.6747 17.5599 42.6588 17.5599 44.9831C17.5599 47.3073 18.376 49.3198 20.0082 51.0205C21.6404 52.6645 23.6102 53.4865 25.9178 53.4865Z" fill="white"/>
<path d="M75.5847 66.9219C70.857 66.9219 67.1706 65.3913 64.5253 62.33C61.8801 59.2688 60.5575 55.1021 60.5575 49.83V23.6395H78.4551V49.0647C78.4551 50.3686 78.7928 51.389 79.4681 52.1259C80.1998 52.8062 81.1285 53.1463 82.2541 53.1463C83.3797 53.1463 84.5335 52.8062 85.7154 52.1259L86.6441 63.9457C85.4059 64.9094 83.7737 65.6464 81.7476 66.1566C79.7777 66.6668 77.7234 66.9219 75.5847 66.9219ZM69.5063 17.2619C66.861 17.2619 64.6097 16.4399 62.7524 14.7959C60.9514 13.0953 60.0509 11.0261 60.0509 8.58845C60.0509 6.1508 61.0077 4.10998 62.9213 2.46599C64.8349 0.821996 67.0299 0 69.5063 0C72.0952 0 74.3184 0.850342 76.1757 2.55103C78.0892 4.25171 79.046 6.26418 79.046 8.58845C79.046 11.0828 78.0892 13.1519 76.1757 14.7959C74.2621 16.4399 72.0389 17.2619 69.5063 17.2619Z" fill="white"/>
<path d="M106.166 66.9219C100.256 66.9219 95.078 66.0432 90.6317 64.2858L92.5734 54.1667C96.6257 55.6407 100.565 56.3776 104.393 56.3776C107.207 56.3776 108.614 55.584 108.614 53.9967C108.614 53.203 108.192 52.5511 107.347 52.0409C106.559 51.5307 105.04 51.0772 102.789 50.6803C98.1172 49.7733 94.7403 48.2427 92.6579 46.0885C90.6317 43.9343 89.6186 40.8731 89.6186 36.9048C89.8438 32.4264 91.6167 28.9966 94.9373 26.6157C98.2579 24.2347 102.789 23.0443 108.529 23.0443C111.456 23.0443 113.961 23.2427 116.043 23.6395C118.182 23.9796 120.123 24.5749 121.868 25.4252L120.095 35.5443C118.463 34.9207 116.662 34.4388 114.692 34.0987C112.779 33.7586 111.175 33.5885 109.88 33.5885C107.967 33.5885 106.644 33.7869 105.912 34.1837C105.181 34.5806 104.815 35.1191 104.815 35.7994C104.815 37.0465 106.222 37.9252 109.036 38.4354C114.158 39.3425 117.985 40.9298 120.517 43.1973C123.05 45.4649 124.316 48.5545 124.316 52.4661C124.316 56.9445 122.74 60.4876 119.589 63.0953C116.493 65.6464 112.019 66.9219 106.166 66.9219Z" fill="white"/>
<path d="M149.045 66.9219C144.092 66.9219 140.237 65.5046 137.479 62.6702C134.721 59.779 133.342 55.8107 133.342 50.7654V34.1837H127.939V23.6395H134.609L142.46 7.56804H150.987V23.6395H160.78V34.1837H150.987V48.6395C150.987 50.0568 151.437 51.1622 152.337 51.9559C153.238 52.7495 154.504 53.1463 156.136 53.1463C157.656 53.1463 159.035 52.8062 160.273 52.1259L160.949 64.0307C159.542 64.881 157.712 65.5897 155.461 66.1566C153.266 66.6668 151.127 66.9219 149.045 66.9219Z" fill="white"/>
<path d="M181.849 66.9219C175.94 66.9219 170.762 66.0432 166.315 64.2858L168.257 54.1667C172.309 55.6407 176.249 56.3776 180.076 56.3776C182.89 56.3776 184.297 55.584 184.297 53.9967C184.297 53.203 183.875 52.5511 183.031 52.0409C182.243 51.5307 180.724 51.0772 178.472 50.6803C173.801 49.7733 170.424 48.2427 168.341 46.0885C166.315 43.9343 165.302 40.8731 165.302 36.9048C165.527 32.4264 167.3 28.9966 170.621 26.6157C173.942 24.2347 178.472 23.0443 184.213 23.0443C187.14 23.0443 189.644 23.2427 191.727 23.6395C193.865 23.9796 195.807 24.5749 197.552 25.4252L195.779 35.5443C194.147 34.9207 192.346 34.4388 190.376 34.0987C188.462 33.7586 186.858 33.5885 185.564 33.5885C183.65 33.5885 182.328 33.7869 181.596 34.1837C180.864 34.5806 180.498 35.1191 180.498 35.7994C180.498 37.0465 181.905 37.9252 184.719 38.4354C189.841 39.3425 193.668 40.9298 196.201 43.1973C198.734 45.4649 200 48.5545 200 52.4661C200 56.9445 198.424 60.4876 195.272 63.0953C192.177 65.6464 187.702 66.9219 181.849 66.9219Z" fill="white"/>
</svg>
