<svg width="57" height="25" viewBox="0 0 57 25" fill="none" xmlns="http://www.w3.org/2000/svg">
<path d="M7.67299 24.5359C6.80625 24.5359 5.97891 24.4486 5.19096 24.274L5.56918 20.7502C6.18377 20.8454 6.7511 20.893 7.27114 20.893C8.24819 20.893 8.98886 20.5994 9.49314 20.0121C9.99743 19.4407 10.2968 18.4724 10.3914 17.1073C9.46163 18.4248 8.04333 19.0835 6.1365 19.0835C5.09641 19.0835 4.13512 18.8137 3.25262 18.274C2.38588 17.7343 1.69249 17.0041 1.17244 16.0835C0.668158 15.1629 0.416016 14.1549 0.416016 13.0597C0.416016 11.9486 0.668158 10.9327 1.17244 10.0121C1.67673 9.07557 2.36224 8.33748 3.22898 7.79779C4.11148 7.25811 5.07277 6.98827 6.11286 6.98827C7.07415 6.98827 7.90937 7.24224 8.61853 7.75017C9.34344 8.24224 9.8162 8.9089 10.0368 9.75017V6.98827H15.0245V16.0597C15.0245 18.8375 14.3942 20.9407 13.1335 22.3692C11.8885 23.8137 10.0683 24.5359 7.67299 24.5359ZM7.67299 15.5121C8.30335 15.5121 8.84703 15.2899 9.30404 14.8454C9.76105 14.3851 10.0053 13.8454 10.0368 13.2264V13.0359C10.0053 12.4327 9.75317 11.901 9.2804 11.4407C8.82339 10.9803 8.28759 10.7502 7.67299 10.7502C7.02688 10.7502 6.47531 10.9883 6.01831 11.4645C5.5613 11.9248 5.33279 12.4803 5.33279 13.1311C5.33279 13.7819 5.5613 14.3454 6.01831 14.8216C6.47531 15.2819 7.02688 15.5121 7.67299 15.5121Z" fill="black"/>
<path d="M21.5797 19.274C20.256 19.274 19.2238 18.8454 18.4831 17.9883C17.7424 17.1311 17.3721 15.9645 17.3721 14.4883V7.15494H22.3834V14.274C22.3834 14.6391 22.478 14.9248 22.6671 15.1311C22.872 15.3216 23.132 15.4168 23.4472 15.4168C23.7623 15.4168 24.0854 15.3216 24.4163 15.1311L24.6764 18.4407C24.3297 18.7105 23.8727 18.9168 23.3053 19.0597C22.7538 19.2026 22.1786 19.274 21.5797 19.274ZM19.8778 5.36922C19.1371 5.36922 18.5067 5.13906 17.9867 4.67875C17.4824 4.20256 17.2303 3.62319 17.2303 2.94065C17.2303 2.25811 17.4982 1.68668 18.034 1.22636C18.5698 0.766047 19.1844 0.535889 19.8778 0.535889C20.6027 0.535889 21.2252 0.773984 21.7452 1.25018C22.281 1.72637 22.5489 2.28986 22.5489 2.94065C22.5489 3.63906 22.281 4.21843 21.7452 4.67875C21.2094 5.13906 20.5869 5.36922 19.8778 5.36922Z" fill="black"/>
<path d="M30.1424 19.274C28.4877 19.274 27.0379 19.028 25.7929 18.5359L26.3366 15.7026C27.4712 16.1153 28.5743 16.3216 29.6459 16.3216C30.4339 16.3216 30.8279 16.0994 30.8279 15.6549C30.8279 15.4327 30.7097 15.2502 30.4733 15.1073C30.2527 14.9645 29.8272 14.8375 29.1968 14.7264C27.8888 14.4724 26.9433 14.0438 26.3602 13.4407C25.7929 12.8375 25.5092 11.9803 25.5092 10.8692C25.5723 9.61525 26.0687 8.65494 26.9985 7.98827C27.9282 7.3216 29.1968 6.98827 30.8042 6.98827C31.6237 6.98827 32.325 7.04383 32.908 7.15494C33.5069 7.25017 34.0506 7.41684 34.5391 7.65494L34.0427 10.4883C33.5857 10.3137 33.0814 10.1787 32.5298 10.0835C31.994 9.98827 31.5449 9.94065 31.1824 9.94065C30.6466 9.94065 30.2763 9.99621 30.0714 10.1073C29.8666 10.2184 29.7641 10.3692 29.7641 10.5597C29.7641 10.9089 30.1581 11.1549 30.9461 11.2978C32.3801 11.5518 33.4517 11.9962 34.1609 12.6311C34.87 13.266 35.2246 14.1311 35.2246 15.2264C35.2246 16.4803 34.7834 17.4724 33.9009 18.2026C33.0341 18.9168 31.7813 19.274 30.1424 19.274Z" fill="black"/>
<path d="M42.1486 19.274C40.7618 19.274 39.6823 18.8772 38.9102 18.0835C38.138 17.274 37.7519 16.1629 37.7519 14.7502V10.1073H36.239V7.15494H38.1065L40.3048 2.65494H42.6923V7.15494H45.4343V10.1073H42.6923V14.1549C42.6923 14.5518 42.8184 14.8613 43.0705 15.0835C43.3226 15.3057 43.6772 15.4168 44.1342 15.4168C44.5597 15.4168 44.9458 15.3216 45.2925 15.1311L45.4816 18.4645C45.0876 18.7026 44.5755 18.901 43.9451 19.0597C43.3305 19.2026 42.7317 19.274 42.1486 19.274Z" fill="black"/>
<path d="M51.3338 19.274C49.6791 19.274 48.2293 19.028 46.9843 18.5359L47.528 15.7026C48.6626 16.1153 49.7658 16.3216 50.8374 16.3216C51.6253 16.3216 52.0193 16.0994 52.0193 15.6549C52.0193 15.4327 51.9011 15.2502 51.6647 15.1073C51.4441 14.9645 51.0186 14.8375 50.3882 14.7264C49.0802 14.4724 48.1347 14.0438 47.5516 13.4407C46.9843 12.8375 46.7007 11.9803 46.7007 10.8692C46.7637 9.61525 47.2601 8.65494 48.1899 7.98827C49.1196 7.3216 50.3882 6.98827 51.9956 6.98827C52.8151 6.98827 53.5164 7.04383 54.0995 7.15494C54.6983 7.25017 55.242 7.41684 55.7305 7.65494L55.2341 10.4883C54.7771 10.3137 54.2728 10.1787 53.7212 10.0835C53.1854 9.98827 52.7363 9.94065 52.3739 9.94065C51.8381 9.94065 51.4677 9.99621 51.2629 10.1073C51.058 10.2184 50.9556 10.3692 50.9556 10.5597C50.9556 10.9089 51.3495 11.1549 52.1375 11.2978C53.5715 11.5518 54.6431 11.9962 55.3523 12.6311C56.0614 13.266 56.416 14.1311 56.416 15.2264C56.416 16.4803 55.9748 17.4724 55.0923 18.2026C54.2255 18.9168 52.9727 19.274 51.3338 19.274Z" fill="black"/>
</svg>
